<?xml version="1.0" encoding="UTF-8"?>
<svg id="Layer_1" xmlns="http://www.w3.org/2000/svg" version="1.1" xmlns:xlink="http://www.w3.org/1999/xlink" viewBox="0 0 1080 1080">
  <!-- Generator: Adobe Illustrator 29.6.0, SVG Export Plug-In . SVG Version: 2.1.1 Build 207)  -->
  <defs>
    <style>
      .st0, .st1 {
        fill: #fff;
      }

      .st1 {
        fill-rule: evenodd;
      }

      .st2 {
        fill: none;
      }

      .st3 {
        clip-path: url(#clippath-1);
      }

      .st4 {
        clip-path: url(#clippath);
      }
    </style>
    <clipPath id="clippath">
      <path class="st2" d="M361.33,853.78l178.67-309.94,179.3,310.99c-107.75,66.62-265.54,61.68-357.97-1.05Z"/>
    </clipPath>
    <clipPath id="clippath-1">
      <path class="st2" d="M718.67,226.22l-178.67,309.94-179.3-310.99c107.75-66.62,265.54-61.68,357.97,1.05h0Z"/>
    </clipPath>
  </defs>
  <path class="st0" d="M540,950c-55.41,0-109.14-10.83-159.7-32.19-48.84-20.63-92.69-50.17-130.31-87.8-37.63-37.63-67.17-81.47-87.8-130.31-21.36-50.56-32.19-104.3-32.19-159.7s10.83-109.14,32.19-159.7c20.63-48.84,50.17-92.69,87.8-130.31s81.47-67.17,130.31-87.8c50.56-21.36,104.3-32.19,159.7-32.19s109.14,10.83,159.7,32.19c48.84,20.63,92.69,50.17,130.31,87.8,37.63,37.63,67.17,81.47,87.8,130.31,21.36,50.56,32.19,104.3,32.19,159.7s-10.83,109.14-32.19,159.7c-20.63,48.84-50.17,92.69-87.8,130.31-37.63,37.63-81.47,67.17-130.31,87.8-50.56,21.36-104.3,32.19-159.7,32.19ZM540,180c-198.5,0-360,161.5-360,360s161.5,360,360,360,360-161.5,360-360-161.5-360-360-360Z"/>
  <path class="st0" d="M721.6,859.2c-.86,0-1.7-.45-2.17-1.25L354.44,225.85c-.68-1.17-.3-2.68.86-3.38l1.8-1.1c.57-.35,1.27-.46,1.92-.29.65.17,1.21.59,1.55,1.17l365,632.2c.33.58.42,1.27.24,1.92-.18.65-.61,1.19-1.2,1.52l-1.8,1c-.38.21-.8.31-1.21.31Z"/>
  <path class="st0" d="M358.4,858.8c-.41,0-.83-.1-1.21-.31l-1.8-1c-.59-.33-1.02-.87-1.2-1.52-.18-.65-.09-1.34.24-1.92L719.43,221.85c.68-1.18,2.19-1.6,3.38-.94l1.8,1c.59.33,1.02.87,1.2,1.52s.09,1.34-.24,1.92l-365,632.2c-.46.8-1.3,1.25-2.17,1.25Z"/>
  <path id="A" class="st1" d="M322.2,575.2l-9.2,28.8h-31.6l44.4-128.4h33.1l44.4,128.4h-31.6l-9.2-28.8h-40.3,0ZM342.4,508.8l-12.1,40.7h24.2l-12.1-40.7Z"/>
  <path id="I" class="st1" d="M753.4,475.6v128.4h-31.4v-128.4h31.4Z"/>
  <g class="st4">
    <g id="Circle_Pattern__x5B_Bottom_Half_x5D__copy">
      <path class="st0" d="M540,872.5c-88.91,0-172.44-34.56-235.19-97.31-62.75-62.75-97.31-146.28-97.31-235.19s34.56-172.44,97.31-235.19c62.75-62.75,146.28-97.31,235.19-97.31s172.44,34.56,235.19,97.31c62.75,62.75,97.31,146.28,97.31,235.19s-34.56,172.44-97.31,235.19c-62.75,62.75-146.28,97.31-235.19,97.31ZM540,222.5c-175.07,0-317.5,142.43-317.5,317.5s142.43,317.5,317.5,317.5,317.5-142.43,317.5-317.5-142.43-317.5-317.5-317.5Z"/>
      <path class="st0" d="M540,832.5c-78.23,0-151.71-30.4-206.9-85.6s-85.6-128.68-85.6-206.9,30.4-151.71,85.6-206.9,128.68-85.6,206.9-85.6,151.71,30.4,206.9,85.6,85.6,128.68,85.6,206.9-30.4,151.71-85.6,206.9-128.68,85.6-206.9,85.6ZM540,262.5c-153.01,0-277.5,124.49-277.5,277.5s124.49,277.5,277.5,277.5,277.5-124.49,277.5-277.5-124.49-277.5-277.5-277.5Z"/>
      <path class="st0" d="M540,792.5c-67.54,0-130.97-26.24-178.62-73.88-47.65-47.65-73.88-111.08-73.88-178.62s26.24-130.97,73.88-178.62,111.08-73.88,178.62-73.88,130.97,26.24,178.62,73.88c47.64,47.65,73.88,111.08,73.88,178.62s-26.24,130.97-73.88,178.62c-47.65,47.64-111.08,73.88-178.62,73.88ZM540,302.5c-130.96,0-237.5,106.54-237.5,237.5s106.54,237.5,237.5,237.5,237.5-106.54,237.5-237.5-106.54-237.5-237.5-237.5Z"/>
      <path class="st0" d="M540,752.5c-56.85,0-110.24-22.08-150.33-62.17-40.09-40.09-62.17-93.48-62.17-150.33s22.08-110.24,62.17-150.33c40.09-40.09,93.48-62.17,150.33-62.17s110.24,22.08,150.33,62.17c40.09,40.09,62.17,93.48,62.17,150.33s-22.08,110.24-62.17,150.33c-40.09,40.09-93.48,62.17-150.33,62.17ZM540,342.5c-108.9,0-197.5,88.6-197.5,197.5s88.6,197.5,197.5,197.5,197.5-88.6,197.5-197.5-88.6-197.5-197.5-197.5Z"/>
      <path class="st0" d="M500.01,707.6c-.6,0-1.2-.07-1.81-.22-76.95-19.05-130.7-87.88-130.7-167.38,0-46.11,17.93-89.44,50.5-122,32.56-32.56,75.89-50.5,122-50.5s89.44,17.93,122,50.5c32.56,32.56,50.5,75.89,50.5,122,0,79.5-53.75,148.33-130.7,167.38-4.02.99-8.09-1.46-9.08-5.48-1-4.02,1.46-8.09,5.48-9.08,70.24-17.39,119.3-80.23,119.3-152.82,0-86.85-70.65-157.5-157.5-157.5s-157.5,70.65-157.5,157.5c0,72.59,49.06,135.43,119.3,152.82,4.02,1,6.47,5.06,5.48,9.08-.85,3.42-3.91,5.7-7.27,5.7Z"/>
      <path class="st0" d="M540,672.5c-73.06,0-132.5-59.44-132.5-132.5s59.44-132.5,132.5-132.5,132.5,59.44,132.5,132.5-59.44,132.5-132.5,132.5ZM540,422.5c-64.79,0-117.5,52.71-117.5,117.5s52.71,117.5,117.5,117.5,117.5-52.71,117.5-117.5-52.71-117.5-117.5-117.5Z"/>
      <rect class="st0" x="532.5" y="660" width="15" height="90" rx="5" ry="5"/>
      <path class="st0" d="M540,627.5c-48.25,0-87.5-39.25-87.5-87.5s39.25-87.5,87.5-87.5,87.5,39.25,87.5,87.5-39.25,87.5-87.5,87.5ZM540,467.5c-39.98,0-72.5,32.52-72.5,72.5s32.52,72.5,72.5,72.5,72.5-32.52,72.5-72.5-32.52-72.5-72.5-72.5Z"/>
    </g>
  </g>
  <g class="st3">
    <g id="Circle_Pattern__x5B_Top_Half_x5D_">
      <path class="st0" d="M540,872.5c-88.91,0-172.44-34.56-235.19-97.31-62.75-62.75-97.31-146.28-97.31-235.19s34.56-172.44,97.31-235.19c62.75-62.75,146.28-97.31,235.19-97.31s172.44,34.56,235.19,97.31c62.75,62.75,97.31,146.28,97.31,235.19s-34.56,172.44-97.31,235.19c-62.75,62.75-146.28,97.31-235.19,97.31ZM540,222.5c-175.07,0-317.5,142.43-317.5,317.5s142.43,317.5,317.5,317.5,317.5-142.43,317.5-317.5-142.43-317.5-317.5-317.5Z"/>
      <path class="st0" d="M540,832.5c-78.23,0-151.71-30.4-206.9-85.6s-85.6-128.68-85.6-206.9,30.4-151.71,85.6-206.9,128.68-85.6,206.9-85.6,151.71,30.4,206.9,85.6,85.6,128.68,85.6,206.9-30.4,151.71-85.6,206.9-128.68,85.6-206.9,85.6ZM540,262.5c-153.01,0-277.5,124.49-277.5,277.5s124.49,277.5,277.5,277.5,277.5-124.49,277.5-277.5-124.49-277.5-277.5-277.5Z"/>
      <path class="st0" d="M540,792.5c-67.54,0-130.97-26.24-178.62-73.88-47.65-47.65-73.88-111.08-73.88-178.62s26.24-130.97,73.88-178.62,111.08-73.88,178.62-73.88,130.97,26.24,178.62,73.88c47.64,47.65,73.88,111.08,73.88,178.62s-26.24,130.97-73.88,178.62c-47.65,47.64-111.08,73.88-178.62,73.88ZM540,302.5c-130.96,0-237.5,106.54-237.5,237.5s106.54,237.5,237.5,237.5,237.5-106.54,237.5-237.5-106.54-237.5-237.5-237.5Z"/>
      <path class="st0" d="M540,752.5c-56.85,0-110.24-22.08-150.33-62.17-40.09-40.09-62.17-93.48-62.17-150.33s22.08-110.24,62.17-150.33c40.09-40.09,93.48-62.17,150.33-62.17s110.24,22.08,150.33,62.17c40.09,40.09,62.17,93.48,62.17,150.33s-22.08,110.24-62.17,150.33c-40.09,40.09-93.48,62.17-150.33,62.17ZM540,342.5c-108.9,0-197.5,88.6-197.5,197.5s88.6,197.5,197.5,197.5,197.5-88.6,197.5-197.5-88.6-197.5-197.5-197.5Z"/>
      <path class="st0" d="M540,712.5c-46.11,0-89.44-17.93-122-50.5-32.56-32.56-50.5-75.89-50.5-122,0-79.5,53.74-148.33,130.7-167.38,4.02-1,8.09,1.46,9.08,5.48,1,4.02-1.46,8.09-5.48,9.08-70.24,17.39-119.3,80.23-119.3,152.82,0,86.85,70.65,157.5,157.5,157.5s157.5-70.65,157.5-157.5c0-72.59-49.06-135.43-119.3-152.82-4.02-1-6.47-5.06-5.48-9.08,1-4.02,5.06-6.47,9.08-5.48,76.95,19.05,130.7,87.88,130.7,167.38,0,46.11-17.93,89.44-50.5,122-32.56,32.56-75.89,50.5-122,50.5Z"/>
      <path class="st0" d="M540,672.5c-73.06,0-132.5-59.44-132.5-132.5s59.44-132.5,132.5-132.5,132.5,59.44,132.5,132.5-59.44,132.5-132.5,132.5ZM540,422.5c-64.79,0-117.5,52.71-117.5,117.5s52.71,117.5,117.5,117.5,117.5-52.71,117.5-117.5-52.71-117.5-117.5-117.5Z"/>
      <rect class="st0" x="532.5" y="330" width="15" height="90" rx="5" ry="5"/>
      <path class="st0" d="M540,627.5c-48.25,0-87.5-39.25-87.5-87.5s39.25-87.5,87.5-87.5,87.5,39.25,87.5,87.5-39.25,87.5-87.5,87.5ZM540,467.5c-39.98,0-72.5,32.52-72.5,72.5s32.52,72.5,72.5,72.5,72.5-32.52,72.5-72.5-32.52-72.5-72.5-72.5Z"/>
    </g>
  </g>
</svg>